<svg width="40" height="40" viewBox="0 0 40 40" fill="none" xmlns="http://www.w3.org/2000/svg">
  <!-- Outer organic contour -->
  <path d="M20 3C18 3.5 14 5 10 8C6 11 3.5 15 3 18C2.5 21 3 25 5 28C7 31 10 34 14 35.5C17 36.5 21 37 24 36C27 35 30 33 32.5 30C35 27 36.5 23 37 20C37.5 17 37 13 35 10C33 7 30 4.5 26 3.5C23 2.5 21.5 2.8 20 3Z" stroke="currentColor" stroke-width="1.2" fill="none"/>
  
  <!-- Middle organic contour -->
  <path d="M20 8C18 8.5 15 10 12 12.5C9.5 15 8 18 8 20C8 22 8.5 24.5 10.5 26.5C12.5 28.5 15 30 17.5 30.5C20 31 23 30.5 25.5 29C28 27.5 30 25 31 22.5C32 20 32 17 31 14.5C30 12 28 9.5 25 8.5C23 8 21.5 7.8 20 8Z" stroke="currentColor" stroke-width="1" fill="none"/>
  
  <!-- Inner organic contour -->
  <path d="M20 13C18.5 13.3 16.5 14.5 15 16C13.5 17.5 13 19 13 20.5C13 22 13.5 23.5 15 24.8C16.5 26 18.5 26.8 20.5 26.5C22 26.2 23.5 25 24.5 23.5C25.5 22 26 20 25.5 18.5C25 17 23.5 15 21.5 14C20.5 13.5 20 12.9 20 13Z" stroke="currentColor" stroke-width="0.8" fill="none"/>
  
  <!-- Center peak (small irregular shape) -->
  <path d="M20 18C19 18.5 18.5 19 18.5 20C18.5 21 19 21.5 20 22C21 21.5 21.5 21 21.5 20C21.5 19 21 18.5 20 18Z" fill="currentColor"/>
</svg>
